 <svg version="1.0" xmlns="http://www.w3.org/2000/svg" width="700.000000pt" height="933.000000pt" viewBox="0 0 700.000000 933.000000" preserveAspectRatio="xMidYMid meet">
<metadata>
Created by potrace 1.12, written by Peter Selinger 2001-2015
</metadata>
<g transform="translate(0.000000,933.000000) scale(0.100000,-0.100000)" fill="#000000" stroke="none">
<path d="M4360 7174 c-430 -38 -773 -103 -1105 -211 -360 -117 -638 -250 -926
-445 -410 -276 -696 -648 -855 -1112 -24 -71 -43 -134 -41 -139 1 -5 37 45 80
111 226 350 557 684 937 944 459 314 1007 509 1682 598 379 49 998 92 1470
102 71 2 128 6 128 11 0 4 -2 7 -3 7 -2 0 -66 13 -143 29 -347 74 -576 99
-934 105 -135 2 -265 2 -290 0z"></path>
<path d="M4660 5574 c-589 -44 -1056 -258 -1315 -602 -73 -97 -161 -263 -193
-362 -29 -91 -54 -231 -50 -287 l3 -48 18 55 c165 488 671 865 1316 980 338
60 626 53 1201 -31 275 -40 490 -84 829 -169 155 -39 285 -69 287 -67 6 6
-248 146 -351 193 -389 177 -710 267 -1120 315 -164 18 -511 31 -625 23z"></path>
<path d="M3857 4969 c-80 -19 -159 -73 -198 -135 -25 -41 -18 -56 14 -27 51
47 87 58 192 58 93 0 105 -2 168 -33 75 -37 205 -137 238 -183 12 -17 48 -92
81 -167 48 -111 191 -397 236 -471 22 -38 -16 196 -53 324 -43 146 -99 254
-241 458 -31 45 -110 110 -173 142 -82 41 -181 54 -264 34z"></path>
<path d="M895 4660 c-39 -16 -65 -58 -145 -235 -44 -98 -106 -220 -139 -270
-121 -185 -205 -351 -279 -545 -164 -432 -163 -840 1 -1265 35 -90 64 -128 47
-63 -4 18 -11 72 -15 120 -5 77 -2 107 29 251 20 90 42 220 51 288 24 192 21
183 60 202 44 21 56 48 95 204 81 329 225 714 391 1045 38 76 69 147 69 158 0
79 -91 141 -165 110z"></path>
<path d="M603 4604 c-63 -97 -124 -243 -143 -337 -22 -111 -30 -187 -20 -187
9 0 102 199 133 285 29 84 71 259 65 276 -2 6 -18 -10 -35 -37z"></path>
<path d="M2129 4123 c-237 -287 -433 -666 -516 -1001 -25 -99 -27 -122 -27
-322 0 -241 13 -328 80 -530 52 -156 174 -403 174 -351 0 5 -7 41 -15 79 -25
123 -49 362 -36 375 8 8 11 3 11 -19 0 -39 16 -64 23 -38 13 45 47 226 57 309
7 50 27 153 46 229 19 77 34 148 34 157 0 9 11 24 23 32 31 20 39 41 88 242
43 180 112 397 186 584 48 122 49 148 11 197 -12 14 -36 33 -55 40 l-33 14 25
50 c14 28 21 50 15 50 -5 0 -46 -44 -91 -97z"></path>
<path d="M1663 4083 c-48 -87 -88 -199 -101 -288 -20 -130 -22 -155 -15 -155
9 0 65 124 105 233 15 43 35 119 44 170 9 51 18 95 21 100 2 4 0 7 -6 7 -5 0
-27 -30 -48 -67z"></path>
<path d="M3932 3958 c19 -93 96 -275 105 -250 3 7 -3 49 -12 95 -16 81 -85
247 -104 247 -5 0 0 -42 11 -92z"></path>
<path d="M2851 3801 c-96 -204 -129 -328 -138 -521 -6 -133 2 -270 15 -270 4
0 14 28 23 63 9 34 37 141 62 237 59 229 121 600 99 600 -5 0 -32 -49 -61
-109z"></path>
<path d="M3530 3880 c0 -5 -18 -31 -41 -57 -148 -173 -362 -596 -443 -875 -90
-311 -70 -693 52 -1019 41 -108 134 -302 180 -373 81 -125 239 -323 250 -312
2 3 -16 47 -40 98 -54 111 -115 274 -156 418 -51 179 -55 204 -47 307 7 94 8
96 48 140 l41 44 12 167 c31 392 98 718 230 1110 59 175 64 196 54 227 -15 45
-63 85 -102 85 -27 0 -30 2 -24 25 4 14 2 25 -4 25 -5 0 -10 -4 -10 -10z"></path>
<path d="M4092 3872 c1 -5 35 -37 74 -71 81 -69 96 -91 61 -91 -32 0 -67 -35
-67 -67 0 -14 13 -47 30 -72 93 -146 170 -422 170 -613 0 -69 15 -112 46 -133
21 -13 24 -23 24 -75 0 -33 4 -60 9 -60 5 0 17 26 26 58 15 52 36 82 57 82 22
0 -26 -284 -68 -402 -54 -149 -152 -314 -269 -451 -32 -37 -55 -70 -52 -73 18
-18 220 122 313 218 124 127 210 270 257 428 68 227 71 393 11 620 -61 233
-223 472 -402 594 -68 46 -227 123 -220 108z"></path>
</g>
</svg>