 <svg version="1.0" xmlns="http://www.w3.org/2000/svg" width="700.000000pt" height="933.000000pt" viewBox="0 0 700.000000 933.000000" preserveAspectRatio="xMidYMid meet">
<metadata>
Created by potrace 1.12, written by Peter Selinger 2001-2015
</metadata>
<g transform="translate(0.000000,933.000000) scale(0.100000,-0.100000)" fill="#000000" stroke="none">
<path d="M3220 7868 c0 -138 21 -232 117 -518 75 -225 85 -260 79 -304 -5 -47
-30 -91 -46 -81 -4 3 -10 19 -14 37 -3 18 -28 69 -55 113 -26 44 -85 141 -130
215 -133 218 -235 446 -256 568 -12 73 -21 46 -14 -41 18 -201 71 -332 264
-647 112 -184 141 -238 131 -248 -3 -2 -14 11 -25 29 -19 31 -21 32 -21 11 0
-29 17 -61 42 -82 37 -30 -11 -96 -65 -88 -14 2 -30 18 -43 43 -26 51 -49 54
-102 15 -79 -57 -130 -164 -118 -249 13 -92 49 -149 169 -261 312 -293 428
-435 639 -785 54 -90 61 -81 22 27 -88 248 -295 521 -584 773 -119 104 -171
175 -178 244 -6 62 10 108 54 159 l35 41 30 -34 c35 -39 75 -51 122 -35 42 13
75 47 91 94 7 21 26 45 46 58 55 37 75 82 74 163 -1 60 -10 94 -62 230 -85
226 -160 464 -176 557 -8 44 -17 82 -20 85 -3 4 -6 -37 -6 -89z"></path>
<path d="M1820 6160 c0 -5 16 -10 35 -10 49 0 149 -35 215 -75 108 -66 212
-195 260 -322 88 -236 100 -507 47 -1073 -34 -359 -41 -543 -28 -735 34 -476
150 -920 342 -1305 242 -486 511 -758 869 -882 91 -31 102 -33 254 -34 l160
-1 30 -45 c88 -129 165 -194 311 -264 211 -101 467 -96 655 14 60 34 146 116
182 171 41 66 34 77 -14 24 -84 -91 -222 -167 -368 -204 -165 -42 -353 -7
-507 93 -41 26 -115 87 -164 135 -86 83 -90 88 -67 97 95 37 175 82 218 122
94 88 145 239 121 356 -13 62 -37 83 -25 23 19 -101 -84 -302 -190 -372 -25
-17 -77 -40 -116 -53 -100 -32 -99 -34 -93 158 5 130 2 182 -16 302 -72 473
-209 911 -408 1303 -81 160 -184 331 -397 660 -272 420 -367 596 -434 807 -79
246 -88 425 -31 597 46 139 172 284 305 349 90 45 78 56 -25 25 -166 -50 -284
-174 -348 -366 -24 -72 -27 -94 -27 -230 -1 -350 108 -611 517 -1239 333 -512
467 -770 592 -1137 102 -300 156 -543 210 -953 19 -144 37 -271 40 -283 4 -19
0 -22 -46 -28 -116 -16 -306 23 -437 89 -517 262 -935 1062 -1022 1958 -18
182 -8 605 21 888 31 303 34 731 5 860 -83 385 -277 590 -558 590 -39 0 -68
-4 -68 -10z"></path>
<path d="M4876 5643 c-20 -213 -26 -359 -26 -733 0 -657 32 -1178 105 -1708
14 -98 62 -332 71 -341 2 -2 6 -2 8 0 7 7 -14 277 -34 449 -72 609 -99 1150
-100 2008 0 366 -9 483 -24 325z"></path>
<path d="M4705 5153 c-10 -312 0 -937 20 -1233 27 -401 82 -858 127 -1047 31
-128 55 -178 44 -90 -3 23 -8 76 -11 117 -3 41 -21 203 -40 360 -80 664 -115
1228 -115 1863 0 149 -4 267 -9 267 -5 0 -12 -107 -16 -237z"></path>
<path d="M3320 5113 c0 -18 134 -238 272 -448 68 -104 164 -254 211 -333 l87
-142 -21 -63 c-63 -186 -14 -402 122 -532 63 -60 115 -88 198 -106 59 -12 55
-6 122 -199 43 -124 159 -577 159 -622 0 -16 5 -28 10 -28 13 0 13 172 -1 263
-38 255 -148 556 -343 943 -190 376 -285 541 -479 834 -122 182 -191 274 -329
435 -5 5 -8 5 -8 -2z m684 -1134 c42 -80 73 -149 69 -152 -12 -13 -22 -7 -25
14 -4 30 -33 47 -55 33 -45 -28 -7 -104 51 -104 17 0 37 5 44 12 9 9 23 -13
60 -93 63 -136 76 -169 69 -175 -8 -8 -87 34 -134 73 -60 49 -132 153 -155
226 -31 98 -38 351 -8 321 5 -5 43 -75 84 -155z"></path>
<path d="M4321 4977 c-14 -141 -14 -430 -1 -608 34 -436 94 -758 179 -961 34
-79 101 -201 108 -195 2 3 -18 81 -46 173 -139 467 -172 697 -202 1417 -7 158
-15 287 -19 287 -4 0 -12 -51 -19 -113z"></path>
<path d="M4537 1969 c-23 -13 -47 -62 -47 -95 0 -39 59 -94 102 -94 62 0 113
61 101 123 -11 59 -102 98 -156 66z"></path>
</g>
</svg>